# xmcd
#
# Track frame offsets: 
#        150
#        14660
#        34910
#        48472
#        64655
#        83290
#        96305
#
# Disc length: 1434 seconds
#
# Revision: 0
# Processed by: cddbd v1.5.2PL0 Copyright (c) Steve Scherf et al.
# Submitted via: ExactAudioCopy v1.3
#
DISCID=52059807
DTITLE=John Denver - John Denver - A Song's Best Friend- The Very Best
DTITLE=of John Denver [CD 2)
DYEAR=2004
DGENRE=Country
TTITLE0=Leaving, On a Jet Plane (Previously Unlereleased on CD)
TTITLE1=The Weight (Previously Unlereleased)
TTITLE2=Annie's Song (Previously Unlereleased Acoustic Mix)
TTITLE3=Calypso (Previously Unlereleased Acoustic Mix)
TTITLE4=Amsterdam (Live at London Palladium)
TTITLE5=Love Again (Duet with Sylvie Vartan)
TTITLE6=Follow Me (Previously Unlereleased Remix Version)
EXTD=
EXTT0=
EXTT1=
EXTT2=
EXTT3=
EXTT4=
EXTT5=
EXTT6=
PLAYORDER=
